<svg xmlns="http://www.w3.org/2000/svg" width="1500" height="300"><path d="M851,210L969,127L687,-87Z" fill="rgb(22,29,29)" stroke="rgb(22,29,29)" stroke-width="1.51"/><path d="M969,127L1026,-49L687,-87Z" fill="rgb(18,23,23)" stroke="rgb(18,23,23)" stroke-width="1.51"/><path d="M687,-87L383,172L851,210Z" fill="rgb(21,26,26)" stroke="rgb(21,26,26)" stroke-width="1.51"/><path d="M520,-380L460,-244L687,-87Z" fill="rgb(12,16,16)" stroke="rgb(12,16,16)" stroke-width="1.51"/><path d="M460,-244L383,172L687,-87Z" fill="rgb(11,15,15)" stroke="rgb(11,15,15)" stroke-width="1.51"/><path d="M383,172L494,361L851,210Z" fill="rgb(28,38,38)" stroke="rgb(28,38,38)" stroke-width="1.51"/><path d="M494,361L657,490L851,210Z" fill="rgb(32,45,45)" stroke="rgb(32,45,45)" stroke-width="1.51"/><path d="M1156,435L1329,77L969,127Z" fill="rgb(33,45,45)" stroke="rgb(33,45,45)" stroke-width="1.51"/><path d="M710,-492L520,-380L687,-87Z" fill="rgb(13,18,18)" stroke="rgb(13,18,18)" stroke-width="1.51"/><path d="M969,127L1329,77L1026,-49Z" fill="rgb(23,31,30)" stroke="rgb(23,31,30)" stroke-width="1.51"/><path d="M1026,-49L978,-476L687,-87Z" fill="rgb(18,23,23)" stroke="rgb(18,23,23)" stroke-width="1.51"/><path d="M1156,435L969,127L851,210Z" fill="rgb(33,46,46)" stroke="rgb(33,46,46)" stroke-width="1.51"/><path d="M657,490L1156,435L851,210Z" fill="rgb(35,49,49)" stroke="rgb(35,49,49)" stroke-width="1.51"/><path d="M1415,-192L978,-476L1026,-49Z" fill="rgb(21,27,27)" stroke="rgb(21,27,27)" stroke-width="1.51"/><path d="M978,-476L710,-492L687,-87Z" fill="rgb(16,21,21)" stroke="rgb(16,21,21)" stroke-width="1.51"/><path d="M494,361L513,690L657,490Z" fill="rgb(31,42,42)" stroke="rgb(31,42,42)" stroke-width="1.51"/><path d="M383,172L214,235L494,361Z" fill="rgb(26,36,36)" stroke="rgb(26,36,36)" stroke-width="1.51"/><path d="M164,-198L214,235L383,172Z" fill="rgb(13,17,17)" stroke="rgb(13,17,17)" stroke-width="1.51"/><path d="M164,-198L383,172L460,-244Z" fill="rgb(7,11,10)" stroke="rgb(7,11,10)" stroke-width="1.51"/><path d="M1329,77L1415,-192L1026,-49Z" fill="rgb(22,29,29)" stroke="rgb(22,29,29)" stroke-width="1.51"/><path d="M90,-479L164,-198L460,-244Z" fill="rgb(5,7,7)" stroke="rgb(5,7,7)" stroke-width="1.51"/><path d="M90,-479L460,-244L520,-380Z" fill="rgb(8,11,11)" stroke="rgb(8,11,11)" stroke-width="1.51"/><path d="M657,490L1111,736L1156,435Z" fill="rgb(36,50,50)" stroke="rgb(36,50,50)" stroke-width="1.51"/><path d="M251,518L513,690L494,361Z" fill="rgb(30,40,40)" stroke="rgb(30,40,40)" stroke-width="1.51"/><path d="M1415,-192L1427,-370L978,-476Z" fill="rgb(22,29,29)" stroke="rgb(22,29,29)" stroke-width="1.51"/><path d="M214,235L251,518L494,361Z" fill="rgb(29,38,38)" stroke="rgb(29,38,38)" stroke-width="1.51"/><path d="M1156,435L1441,469L1329,77Z" fill="rgb(40,56,56)" stroke="rgb(40,56,56)" stroke-width="1.51"/><path d="M769,848L1111,736L657,490Z" fill="rgb(34,48,48)" stroke="rgb(34,48,48)" stroke-width="1.51"/><path d="M1421,690L1441,469L1156,435Z" fill="rgb(40,57,57)" stroke="rgb(40,57,57)" stroke-width="1.51"/><path d="M1329,77L1705,-158L1415,-192Z" fill="rgb(25,32,32)" stroke="rgb(25,32,32)" stroke-width="1.51"/><path d="M1415,-192L1639,-423L1427,-370Z" fill="rgb(25,33,33)" stroke="rgb(25,33,33)" stroke-width="1.51"/><path d="M513,690L769,848L657,490Z" fill="rgb(32,44,44)" stroke="rgb(32,44,44)" stroke-width="1.51"/><path d="M-215,180L-67,392L214,235Z" fill="rgb(23,30,30)" stroke="rgb(23,30,30)" stroke-width="1.51"/><path d="M214,235L-67,392L251,518Z" fill="rgb(26,35,35)" stroke="rgb(26,35,35)" stroke-width="1.51"/><path d="M710,-492L90,-479L520,-380Z" fill="rgb(10,13,13)" stroke="rgb(10,13,13)" stroke-width="1.51"/><path d="M1111,736L1421,690L1156,435Z" fill="rgb(39,55,55)" stroke="rgb(39,55,55)" stroke-width="1.51"/><path d="M1559,800L1421,690L1111,736Z" fill="rgb(40,57,57)" stroke="rgb(40,57,57)" stroke-width="1.51"/><path d="M1727,135L1329,77L1441,469Z" fill="rgb(38,53,53)" stroke="rgb(38,53,53)" stroke-width="1.51"/><path d="M1727,135L1705,-158L1329,77Z" fill="rgb(26,35,35)" stroke="rgb(26,35,35)" stroke-width="1.51"/><path d="M1421,690L1608,486L1441,469Z" fill="rgb(42,60,60)" stroke="rgb(42,60,60)" stroke-width="1.51"/><path d="M1608,486L1727,135L1441,469Z" fill="rgb(42,60,60)" stroke="rgb(42,60,60)" stroke-width="1.51"/><path d="M1427,-370L1639,-423L978,-476Z" fill="rgb(23,30,30)" stroke="rgb(23,30,30)" stroke-width="1.51"/><path d="M1705,-158L1639,-423L1415,-192Z" fill="rgb(25,33,33)" stroke="rgb(25,33,33)" stroke-width="1.51"/><path d="M-215,180L214,235L164,-198Z" fill="rgb(9,13,13)" stroke="rgb(9,13,13)" stroke-width="1.51"/><path d="M251,518L67,765L513,690Z" fill="rgb(28,38,38)" stroke="rgb(28,38,38)" stroke-width="1.51"/><path d="M513,690L67,765L769,848Z" fill="rgb(30,41,41)" stroke="rgb(30,41,41)" stroke-width="1.51"/><path d="M-252,-223L-215,180L164,-198Z" fill="rgb(0,0,0)" stroke="rgb(0,0,0)" stroke-width="1.51"/><path d="M-233,820L67,765L-67,392Z" fill="rgb(25,33,33)" stroke="rgb(25,33,33)" stroke-width="1.51"/><path d="M-67,392L67,765L251,518Z" fill="rgb(26,34,34)" stroke="rgb(26,34,34)" stroke-width="1.51"/><path d="M1608,486L1850,392L1727,135Z" fill="rgb(42,60,60)" stroke="rgb(42,60,60)" stroke-width="1.51"/><path d="M1421,690L1559,800L1608,486Z" fill="rgb(42,60,60)" stroke="rgb(42,60,60)" stroke-width="1.51"/><path d="M769,848L1559,800L1111,736Z" fill="rgb(38,53,53)" stroke="rgb(38,53,53)" stroke-width="1.51"/><path d="M1705,-158L2038,-544L1639,-423Z" fill="rgb(25,33,33)" stroke="rgb(25,33,33)" stroke-width="1.51"/><path d="M1727,135L1968,-92L1705,-158Z" fill="rgb(25,33,33)" stroke="rgb(25,33,33)" stroke-width="1.51"/><path d="M2037,784L1850,392L1608,486Z" fill="rgb(42,60,60)" stroke="rgb(42,60,60)" stroke-width="1.51"/><path d="M90,-479L-252,-223L164,-198Z" fill="rgb(0,0,0)" stroke="rgb(0,0,0)" stroke-width="1.51"/><path d="M90,-479L-157,-515L-252,-223Z" fill="rgb(0,0,0)" stroke="rgb(0,0,0)" stroke-width="1.51"/><path d="M710,-492L-157,-515L90,-479Z" fill="rgb(4,7,7)" stroke="rgb(4,7,7)" stroke-width="1.51"/><path d="M1850,392L1939,126L1727,135Z" fill="rgb(37,52,52)" stroke="rgb(37,52,52)" stroke-width="1.51"/><path d="M1939,126L1968,-92L1727,135Z" fill="rgb(28,38,38)" stroke="rgb(28,38,38)" stroke-width="1.51"/><path d="M-522,497L-233,820L-67,392Z" fill="rgb(25,33,33)" stroke="rgb(25,33,33)" stroke-width="1.51"/><path d="M-252,-223L-416,41L-215,180Z" fill="rgb(0,0,0)" stroke="rgb(0,0,0)" stroke-width="1.51"/><path d="M-440,-190L-416,41L-252,-223Z" fill="rgb(0,0,0)" stroke="rgb(0,0,0)" stroke-width="1.51"/><path d="M-420,-436L-440,-190L-252,-223Z" fill="rgb(0,0,0)" stroke="rgb(0,0,0)" stroke-width="1.51"/><path d="M-522,497L-67,392L-215,180Z" fill="rgb(25,33,33)" stroke="rgb(25,33,33)" stroke-width="1.51"/><path d="M67,765L-233,820L769,848Z" fill="rgb(27,36,36)" stroke="rgb(27,36,36)" stroke-width="1.51"/><path d="M-157,-515L-420,-436L-252,-223Z" fill="rgb(0,0,0)" stroke="rgb(0,0,0)" stroke-width="1.51"/><path d="M1639,-423L2038,-544L978,-476Z" fill="rgb(25,33,33)" stroke="rgb(25,33,33)" stroke-width="1.51"/><path d="M978,-476L2038,-544L710,-492Z" fill="rgb(22,28,28)" stroke="rgb(22,28,28)" stroke-width="1.51"/><path d="M710,-492L2038,-544L-157,-515Z" fill="rgb(17,22,22)" stroke="rgb(17,22,22)" stroke-width="1.51"/><path d="M1968,-92L2038,-544L1705,-158Z" fill="rgb(25,33,33)" stroke="rgb(25,33,33)" stroke-width="1.51"/><path d="M2037,784L2038,-544L1968,-92Z" fill="rgb(28,37,37)" stroke="rgb(28,37,37)" stroke-width="1.51"/><path d="M-416,41L-522,497L-215,180Z" fill="rgb(22,28,28)" stroke="rgb(22,28,28)" stroke-width="1.51"/><path d="M-440,-190L-522,497L-416,41Z" fill="rgb(12,17,17)" stroke="rgb(12,17,17)" stroke-width="1.51"/><path d="M-420,-436L-522,497L-440,-190Z" fill="rgb(0,0,0)" stroke="rgb(0,0,0)" stroke-width="1.51"/><path d="M1559,800L2037,784L1608,486Z" fill="rgb(42,60,60)" stroke="rgb(42,60,60)" stroke-width="1.51"/><path d="M1850,392L2037,784L1939,126Z" fill="rgb(42,60,60)" stroke="rgb(42,60,60)" stroke-width="1.51"/><path d="M1939,126L2037,784L1968,-92Z" fill="rgb(40,57,57)" stroke="rgb(40,57,57)" stroke-width="1.51"/><path d="M769,848L2037,784L1559,800Z" fill="rgb(42,59,59)" stroke="rgb(42,59,59)" stroke-width="1.51"/><path d="M-522,497L-548,701L-233,820Z" fill="rgb(25,33,33)" stroke="rgb(25,33,33)" stroke-width="1.51"/><path d="M-420,-436L-548,701L-522,497Z" fill="rgb(22,29,29)" stroke="rgb(22,29,29)" stroke-width="1.51"/></svg>